<svg width="16" height="16" viewBox="0 0 16 16" fill="none" xmlns="http://www.w3.org/2000/svg">
<path fill-rule="evenodd" clip-rule="evenodd" d="M12 3.19995C13.3255 3.19995 14.4 4.27447 14.4 5.59995V10.4C14.4 11.7254 13.3255 12.8 12 12.8H3.99998C2.67449 12.8 1.59998 11.7254 1.59998 10.4V5.59995C1.59998 4.27447 2.67449 3.19995 3.99998 3.19995H12ZM12.8 5.83995L8.52678 9.40201C8.25029 9.64394 7.84882 9.6641 7.5515 9.46249L7.47317 9.40201L3.19998 5.84075V10.4C3.19998 10.8418 3.55815 11.1999 3.99998 11.1999H12C12.4418 11.1999 12.8 10.8418 12.8 10.4V5.83995ZM11.5456 4.79995H4.45357L7.99997 7.73694L11.5456 4.79995Z" fill="black" fill-opacity="0.5"/>
</svg>
