<svg width="16" height="16" viewBox="0 0 16 16" fill="none" xmlns="http://www.w3.org/2000/svg">
<path fill-rule="evenodd" clip-rule="evenodd" d="M7.20004 1.6001C10.2928 1.6001 12.8 4.1073 12.8 7.2001C12.8 8.4612 12.3832 9.62494 11.6797 10.561L11.7236 10.5954L11.7657 10.6344L14.1657 13.0344C14.4781 13.3468 14.4781 13.8534 14.1657 14.1658C13.8773 14.4542 13.4235 14.4764 13.1097 14.2323L13.0344 14.1658L10.6344 11.7658C10.607 11.7384 10.582 11.7096 10.5595 11.6795C9.62488 12.3832 8.46114 12.8001 7.20004 12.8001C4.10724 12.8001 1.60004 10.2929 1.60004 7.2001C1.60004 4.1073 4.10724 1.6001 7.20004 1.6001ZM7.20005 3.20009C4.99091 3.20009 3.20005 4.99095 3.20005 7.20009C3.20005 9.40923 4.99091 11.2001 7.20005 11.2001C9.40919 11.2001 11.2 9.40923 11.2 7.20009C11.2 4.99095 9.40919 3.20009 7.20005 3.20009Z" fill="black" fill-opacity="0.5"/>
</svg>
