<svg width="16" height="16" viewBox="0 0 16 16" fill="none" xmlns="http://www.w3.org/2000/svg">
<path fill-rule="evenodd" clip-rule="evenodd" d="M12.6666 2.66675C13.7712 2.66675 14.6666 3.56218 14.6666 4.66675V6.00008C14.6666 6.36827 14.3682 6.66675 14 6.66675C13.2636 6.66675 12.6666 7.2637 12.6666 8.00008C12.6666 8.70299 13.2106 9.27886 13.9005 9.32976L14.0777 9.3379C14.4093 9.37641 14.6666 9.65819 14.6666 10.0001V11.3334C14.6666 12.438 13.7712 13.3334 12.6666 13.3334H3.33331C2.22874 13.3334 1.33331 12.438 1.33331 11.3334V10.0001C1.33331 9.65819 1.59067 9.37641 1.92223 9.3379L2.09949 9.32976C2.78939 9.27886 3.33331 8.70299 3.33331 8.00008C3.33331 7.2637 2.73636 6.66675 1.99998 6.66675C1.63179 6.66675 1.33331 6.36827 1.33331 6.00008V4.66675C1.33331 3.56218 2.22874 2.66675 3.33331 2.66675H12.6666ZM8.66665 4.00008H3.33331C2.96512 4.00008 2.66665 4.29856 2.66665 4.66675V5.41743C3.8168 5.71345 4.66665 6.75752 4.66665 8.00008C4.66665 9.24264 3.8168 10.2867 2.66665 10.5827V11.3334C2.66665 11.7016 2.96512 12.0001 3.33331 12.0001H8.66665V11.3334C8.66665 10.9652 8.96512 10.6667 9.33331 10.6667C9.7015 10.6667 9.99998 10.9652 9.99998 11.3334V12.0001H12.6666C13.0348 12.0001 13.3333 11.7016 13.3333 11.3334V10.5827C12.1832 10.2867 11.3333 9.24264 11.3333 8.00008C11.3333 6.80354 12.1214 5.79107 13.2068 5.45337L13.3333 5.41743V4.66675C13.3333 4.29856 13.0348 4.00008 12.6666 4.00008H9.99998V4.66675C9.99998 5.03494 9.7015 5.33341 9.33331 5.33341C8.96512 5.33341 8.66665 5.03494 8.66665 4.66675V4.00008ZM9.33331 6.66675C9.7015 6.66675 9.99998 6.96522 9.99998 7.33341V8.66675C9.99998 9.03494 9.7015 9.33341 9.33331 9.33341C8.96512 9.33341 8.66665 9.03494 8.66665 8.66675V7.33341C8.66665 6.96522 8.96512 6.66675 9.33331 6.66675Z" fill="black" fill-opacity="0.5"/>
</svg>
