<svg width="16" height="16" viewBox="0 0 16 16" fill="none" xmlns="http://www.w3.org/2000/svg">
<path fill-rule="evenodd" clip-rule="evenodd" d="M6.33331 2.99847L7.99998 3.68747L9.66665 2.99847C10.7365 2.55617 11.9301 2.55617 13 2.99847L14.2476 3.51422C14.5007 3.61886 14.6666 3.87221 14.6666 4.15394V12.3157C14.6666 12.6963 14.3682 13.0047 14 13.0047C13.9152 13.0047 13.8311 12.988 13.7524 12.9555L13 12.6444C11.9301 12.2021 10.7365 12.2021 9.66665 12.6444L7.99998 13.3334L6.33331 12.6444C5.26341 12.2021 4.06988 12.2021 2.99998 12.6444L2.24757 12.9555C1.90572 13.0968 1.51774 12.9249 1.381 12.5716C1.3495 12.4902 1.33331 12.4034 1.33331 12.3157V4.15394C1.33331 3.87221 1.49928 3.61886 1.75239 3.51422L2.99998 2.99847C4.06988 2.55617 5.26341 2.55617 6.33331 2.99847ZM3.50937 4.23066L2.66665 4.57904V11.3428C4.01693 10.8361 5.505 10.8592 6.8427 11.4122L7.33331 11.6147V4.85475L5.82393 4.23066C5.08023 3.92322 4.25306 3.92322 3.50937 4.23066ZM10.176 4.23066L8.66665 4.85408V11.6147L9.15726 11.4122C10.495 10.8592 11.983 10.8361 13.3333 11.3428V4.57904L12.4906 4.23066C11.7469 3.92322 10.9197 3.92322 10.176 4.23066Z" fill="black"/>
</svg>
