<svg width="16" height="16" viewBox="0 0 16 16" fill="none" xmlns="http://www.w3.org/2000/svg">
<path fill-rule="evenodd" clip-rule="evenodd" d="M1.99998 1.33325H7.33331C8.20415 1.33325 8.94499 1.88982 9.21953 2.66664L12.6666 2.66659C13.7318 2.66659 14.6024 3.4992 14.6633 4.54907L14.6666 4.66659V9.99992C14.6666 11.065 13.834 11.9357 12.7842 11.9965L12.6666 11.9999H9.99998C9.12939 11.9999 8.38872 11.4437 8.114 10.6672L2.66665 10.6666V13.9999C2.66665 14.3681 2.36817 14.6666 1.99998 14.6666C1.63179 14.6666 1.33331 14.3681 1.33331 13.9999V1.99992C1.33331 1.63173 1.63179 1.33325 1.99998 1.33325ZM9.33331 3.99992V9.99992C9.33331 10.3418 9.59067 10.6236 9.92223 10.6621L9.99998 10.6666H12.6666C13.0085 10.6666 13.2903 10.4092 13.3288 10.0777L13.3333 9.99992V4.66659C13.3333 4.32469 13.076 4.04291 12.7444 4.0044L12.6666 3.99992H9.33331ZM7.33331 2.66659H2.66665V9.33325H7.99998V3.33325C7.99998 2.99136 7.74262 2.70958 7.41106 2.67107L7.33331 2.66659Z" fill="black" fill-opacity="0.5"/>
</svg>
