<svg width="16" height="16" viewBox="0 0 16 16" fill="none" xmlns="http://www.w3.org/2000/svg">
<path fill-rule="evenodd" clip-rule="evenodd" d="M7.26503 1.33454L8.68003 1.33447C8.72281 1.33646 8.76039 1.34135 8.81314 1.35284C9.20011 1.4371 9.34723 1.57605 9.70736 2.42704L9.76606 2.56742L9.99238 3.1282L10.011 3.13585L10.3026 3.00385C10.9377 2.71985 11.2651 2.60023 11.4852 2.56685L11.5308 2.56099L11.6139 2.55651C11.8121 2.55651 12.014 2.62671 12.1685 2.74894L12.2416 2.81431L13.1462 3.71518L13.2091 3.78165C13.4932 4.09466 13.5198 4.31658 13.2055 5.12537L13.1009 5.38629L12.8543 5.96959L12.859 5.98098L13.4238 6.19188L13.696 6.29948C14.3993 6.58702 14.5438 6.74028 14.6378 7.0923C14.6568 7.16329 14.6635 7.21164 14.6657 7.27167L14.6666 7.33686V8.60868C14.6666 8.69909 14.6635 8.75015 14.6413 8.8395C14.5477 9.21531 14.4088 9.35841 13.5636 9.71542L13.4242 9.77363L12.8673 9.99837L12.8634 10.0078L13.0648 10.4477C13.5656 11.5607 13.5831 11.8047 13.2539 12.1712L13.2128 12.2159L12.2842 13.1438C12.1179 13.3118 11.8811 13.4043 11.6519 13.4043C11.4573 13.4043 11.1516 13.3118 10.6306 13.1029L10.3516 12.9886L10.0339 12.8542L10.0157 12.8617L9.85154 13.3021C9.44957 14.3611 9.31185 14.5331 8.89891 14.6396C8.83789 14.6554 8.79425 14.6621 8.74469 14.6648L8.66301 14.6665H7.3904C7.31097 14.6665 7.26615 14.6642 7.18726 14.6471C6.80045 14.5632 6.65274 14.4239 6.2919 13.5725L6.23308 13.432L6.00638 12.8709L5.98894 12.8637L5.56541 13.0541C4.88798 13.3523 4.59451 13.4431 4.38535 13.4431C4.18948 13.4431 3.99003 13.3743 3.83137 13.2509L3.75564 13.1847L2.85227 12.2825L2.74911 12.17C2.50137 11.8785 2.48919 11.6525 2.79327 10.8745L2.95173 10.485L3.14516 10.0303L3.14113 10.0205L2.7032 9.85735C1.8247 9.52399 1.55397 9.37044 1.42531 9.09011L1.39051 9.00191L1.36144 8.90425C1.34499 8.84182 1.33798 8.79709 1.33512 8.74619L1.33331 8.66224V7.38966C1.33331 7.29854 1.33647 7.24703 1.35916 7.15691C1.44375 6.82092 1.56382 6.6717 2.19629 6.38829L2.45842 6.27509L3.13153 6.00289L3.13614 5.99168L2.88448 5.43639C2.4692 4.49315 2.43481 4.20595 2.69682 3.88519L2.73266 3.8431L2.81756 3.75312L3.71742 2.8553C3.88229 2.68952 4.11811 2.59606 4.34764 2.59606C4.51182 2.59606 4.75287 2.66102 5.13868 2.80715L5.52682 2.96101L5.96684 3.14543L5.98487 3.13792L6.1503 2.69471C6.55602 1.62805 6.70084 1.44967 7.12879 1.35387C7.18277 1.34179 7.22128 1.33663 7.26503 1.33454ZM8.34865 2.66655H7.60536L7.50056 2.91223C7.46076 3.0099 7.41587 3.12399 7.36517 3.25642L7.13286 3.87784C7.07714 4.02496 6.97156 4.14681 6.83581 4.22303L6.76552 4.25724L6.21945 4.48448C6.08158 4.54185 5.9293 4.55095 5.78691 4.51188L5.70286 4.48265L5.05681 4.21034L4.70785 4.07118L4.4733 3.98461L3.94649 4.51022L4.00849 4.66683C4.03272 4.72581 4.06061 4.79176 4.0924 4.86523L4.19978 5.10875L4.46909 5.69748C4.53359 5.83768 4.54708 5.99497 4.509 6.14262L4.47996 6.22983L4.25666 6.77245C4.19755 6.91611 4.09048 7.03383 3.95493 7.10643L3.88487 7.13888L3.15982 7.43033L2.79737 7.58569L2.66665 7.64622V8.39967L2.82307 8.46748C2.88229 8.49225 2.94879 8.51925 3.02316 8.54871L3.2705 8.6447L3.87153 8.8679C4.02305 8.92252 4.14878 9.02978 4.22677 9.1687L4.26168 9.24069L4.485 9.78172C4.54235 9.92065 4.55075 10.074 4.51042 10.217L4.48038 10.3014L4.22119 10.9096L4.05864 11.3108L3.97946 11.5239L4.5063 12.05L4.66317 11.988C4.72095 11.9645 4.78428 11.9381 4.85331 11.9086L5.33721 11.6952L5.68618 11.5346C5.83221 11.4648 5.99773 11.4509 6.15195 11.4938L6.22798 11.5199L6.77727 11.7467C6.92286 11.8068 7.04166 11.9161 7.1138 12.0543L7.1459 12.1257L7.28259 12.4706L7.47712 12.9437L7.5897 13.2021L7.65075 13.3332H8.39623L8.5027 13.0822L8.64136 12.7282L8.86714 12.1228C8.92282 11.9744 9.0292 11.8515 9.16612 11.775L9.23703 11.7407L9.78398 11.515C9.92025 11.4587 10.0705 11.4496 10.2113 11.4874L10.2945 11.5157L10.8095 11.7342L11.1854 11.8873L11.3911 11.9666L11.5269 12.0158L12.0543 11.4893L11.9527 11.2384L11.8002 10.8907L11.5304 10.3025C11.4656 10.162 11.4521 10.0044 11.4904 9.85647L11.5195 9.7691L11.7424 9.22884C11.8012 9.08629 11.9073 8.9693 12.0416 8.89669L12.111 8.86417L12.7251 8.61731L13.0385 8.48591L13.1247 8.44842L13.3333 8.35299V7.6003L13.1242 7.51103L12.841 7.39895L12.126 7.13281C11.9749 7.0778 11.8496 6.97035 11.772 6.83143L11.7372 6.75944L11.5143 6.21623C11.4574 6.07764 11.4492 5.9248 11.4894 5.78225L11.5193 5.69814L11.7263 5.21422C11.7802 5.08624 11.8271 4.97275 11.8676 4.87245L11.9402 4.68903L12.0193 4.47469L11.4922 3.94976L11.3353 4.01187C11.2484 4.04727 11.149 4.08928 11.0361 4.13834L10.9188 4.18976L10.3036 4.46881C10.1636 4.53295 10.0067 4.54629 9.85938 4.5083L9.77237 4.47935L9.22344 4.25371C9.07974 4.19464 8.96198 4.08761 8.88933 3.95207L8.85685 3.88202L8.66276 3.39642L8.52211 3.05623L8.44421 2.8753L8.34865 2.66655ZM8.00029 5.33322C9.47106 5.33322 10.6666 6.52856 10.6666 7.9993C10.6666 9.47014 9.47097 10.6665 8.00029 10.6665C6.5292 10.6665 5.33331 9.47035 5.33331 7.9993C5.33331 6.52835 6.52911 5.33322 8.00029 5.33322ZM8.00029 6.66655C7.26532 6.66655 6.66665 7.26489 6.66665 7.9993C6.66665 8.73405 7.26566 9.33321 8.00029 9.33321C8.73441 9.33321 9.33331 8.73394 9.33331 7.9993C9.33331 7.265 8.73474 6.66655 8.00029 6.66655Z" fill="black" fill-opacity="0.5"/>
</svg>
