<svg width="16" height="16" viewBox="0 0 16 16" fill="none" xmlns="http://www.w3.org/2000/svg">
<path fill-rule="evenodd" clip-rule="evenodd" d="M11.3333 1.33325C11.7015 1.33325 12 1.63173 12 1.99992V2.66659H12.6666C13.7712 2.66659 14.6666 3.56202 14.6666 4.66659V12.6666C14.6666 13.7712 13.7712 14.6666 12.6666 14.6666H3.33331C2.22874 14.6666 1.33331 13.7712 1.33331 12.6666V4.66659C1.33331 3.56202 2.22874 2.66659 3.33331 2.66659H3.99998V1.99992C3.99998 1.63173 4.29846 1.33325 4.66665 1.33325C5.03484 1.33325 5.33331 1.63173 5.33331 1.99992V2.66659H10.6666V1.99992C10.6666 1.63173 10.9651 1.33325 11.3333 1.33325ZM13.3333 7.99992H2.66665V12.6666C2.66665 13.0348 2.96513 13.3333 3.33332 13.3333H12.6666C13.0348 13.3333 13.3333 13.0348 13.3333 12.6666V7.99992ZM11.3333 9.33325C11.7015 9.33325 12 9.63173 12 9.99992V11.3333C12 11.7014 11.7015 11.9999 11.3333 11.9999H9.99998C9.63179 11.9999 9.33331 11.7014 9.33331 11.3333V9.99992C9.33331 9.63173 9.63179 9.33325 9.99998 9.33325H11.3333ZM3.99998 3.99992H3.33332C2.96513 3.99992 2.66665 4.2984 2.66665 4.66659V6.66659H13.3333V4.66659C13.3333 4.2984 13.0348 3.99992 12.6666 3.99992H12V4.66659C12 5.03478 11.7015 5.33325 11.3333 5.33325C10.9651 5.33325 10.6666 5.03478 10.6666 4.66659V3.99992H5.33332V4.66659C5.33332 5.03478 5.03484 5.33325 4.66665 5.33325C4.29846 5.33325 3.99998 5.03478 3.99998 4.66659V3.99992Z" fill="black" fill-opacity="0.5"/>
</svg>
