<svg width="16" height="16" viewBox="0 0 16 16" fill="none" xmlns="http://www.w3.org/2000/svg">
<path fill-rule="evenodd" clip-rule="evenodd" d="M12.6666 1.33325C13.7712 1.33325 14.6666 2.22868 14.6666 3.33325V12.6666C14.6666 13.7712 13.7712 14.6666 12.6666 14.6666H3.33331C2.22874 14.6666 1.33331 13.7712 1.33331 12.6666V3.33325C1.33331 2.22868 2.22874 1.33325 3.33331 1.33325H12.6666ZM12.6666 2.66659H3.33331C2.96512 2.66659 2.66665 2.96506 2.66665 3.33325V12.6666C2.66665 13.0348 2.96512 13.3333 3.33331 13.3333H12.6666C13.0348 13.3333 13.3333 13.0348 13.3333 12.6666V3.33325C13.3333 2.96506 13.0348 2.66659 12.6666 2.66659ZM5.33331 9.33325C5.7015 9.33325 5.99998 9.63173 5.99998 9.99992V11.3333C5.99998 11.7014 5.7015 11.9999 5.33331 11.9999C4.96512 11.9999 4.66665 11.7014 4.66665 11.3333V9.99992C4.66665 9.63173 4.96512 9.33325 5.33331 9.33325ZM7.99998 3.99992C8.36817 3.99992 8.66665 4.2984 8.66665 4.66659V11.3333C8.66665 11.7014 8.36817 11.9999 7.99998 11.9999C7.63179 11.9999 7.33331 11.7014 7.33331 11.3333V4.66659C7.33331 4.2984 7.63179 3.99992 7.99998 3.99992ZM10.6666 6.66658C11.0348 6.66658 11.3333 6.96506 11.3333 7.33325V11.3333C11.3333 11.7014 11.0348 11.9999 10.6666 11.9999C10.2985 11.9999 9.99998 11.7014 9.99998 11.3333V7.33325C9.99998 6.96506 10.2985 6.66658 10.6666 6.66658Z" fill="black" fill-opacity="0.5"/>
</svg>
