<svg width="16" height="16" viewBox="0 0 16 16" fill="none" xmlns="http://www.w3.org/2000/svg">
<path fill-rule="evenodd" clip-rule="evenodd" d="M4.66665 10.6666H11.3333C13.1743 10.6666 14.6666 12.159 14.6666 13.9999C14.6666 14.3681 14.3682 14.6666 14 14.6666C13.6581 14.6666 13.3763 14.4092 13.3378 14.0777L13.3299 13.8824C13.2713 12.8714 12.4618 12.0619 11.4508 12.0033L11.3333 11.9999H4.66665C3.56208 11.9999 2.66665 12.8953 2.66665 13.9999C2.66665 14.3681 2.36817 14.6666 1.99998 14.6666C1.63179 14.6666 1.33331 14.3681 1.33331 13.9999C1.33331 12.2074 2.74818 10.7454 4.52205 10.6697L4.66665 10.6666H11.3333H4.66665ZM7.99998 1.33325C10.2091 1.33325 12 3.12411 12 5.33325C12 7.54239 10.2091 9.33325 7.99998 9.33325C5.79084 9.33325 3.99998 7.54239 3.99998 5.33325C3.99998 3.12411 5.79084 1.33325 7.99998 1.33325ZM7.99998 2.66659C6.52722 2.66659 5.33331 3.86049 5.33331 5.33325C5.33331 6.80601 6.52722 7.99992 7.99998 7.99992C9.47274 7.99992 10.6666 6.80601 10.6666 5.33325C10.6666 3.86049 9.47274 2.66659 7.99998 2.66659Z" fill="black" fill-opacity="0.5"/>
</svg>
