<svg width="16" height="16" viewBox="0 0 16 16" fill="none" xmlns="http://www.w3.org/2000/svg">
<path fill-rule="evenodd" clip-rule="evenodd" d="M11 1.33325C13.2091 1.33325 15 3.12411 15 5.33325C15 7.49218 13.2896 9.25163 11.15 9.33049L11 9.33325H7.66667V10.6666H10.3333C10.7015 10.6666 11 10.9651 11 11.3333C11 11.7014 10.7015 11.9999 10.3333 11.9999H7.66667V13.9999C7.66667 14.3681 7.36819 14.6666 7 14.6666C6.63181 14.6666 6.33333 14.3681 6.33333 13.9999V11.9999H3.66667C3.29848 11.9999 3 11.7014 3 11.3333C3 10.9651 3.29848 10.6666 3.66667 10.6666H6.33333V9.33325H3.66667C3.29848 9.33325 3 9.03478 3 8.66659C3 8.3247 3.25736 8.04291 3.58892 8.0044L3.66667 7.99992H6.33333V1.99992C6.33333 1.63173 6.63181 1.33325 7 1.33325H11ZM11 2.66656H7.66668V7.9999H11C12.4728 7.9999 13.6667 6.80599 13.6667 5.33323C13.6667 3.9051 12.544 2.73918 11.1331 2.66983L11 2.66656Z" fill="black" fill-opacity="0.5"/>
</svg>
