<svg width="120" height="69" viewBox="0 0 120 69" fill="none" xmlns="http://www.w3.org/2000/svg">
<path fill-rule="evenodd" clip-rule="evenodd" d="M64.4738 44.5671C73.5011 44.5671 80.8598 44.3391 80.8598 44.0549C80.8598 43.7742 73.5011 43.5428 64.4738 43.5428C55.45 43.5428 48.0879 43.7742 48.0879 44.0549C48.0879 44.3374 55.45 44.5671 64.4738 44.5671Z" fill="#0C0B38"/>
<path fill-rule="evenodd" clip-rule="evenodd" d="M65.4282 11.9916L66.0667 13.2772C66.1604 13.4645 66.317 13.5786 66.5247 13.6092L67.9464 13.817C68.0605 13.834 68.1541 13.9106 68.1899 14.0247C68.2273 14.1354 68.1967 14.2495 68.1133 14.3329L67.0866 15.3376C66.9367 15.484 66.8789 15.6662 66.9129 15.8756L67.1513 17.2907C67.1717 17.4082 67.1274 17.5188 67.0304 17.5887C66.9333 17.6585 66.8159 17.6653 66.712 17.6091L65.4401 16.9433C65.2563 16.8462 65.0622 16.8462 64.8749 16.9433L63.603 17.6091C63.4992 17.6653 63.3817 17.6568 63.2846 17.5887C63.1876 17.5188 63.1433 17.4082 63.1638 17.2907L63.4021 15.8756C63.4362 15.6679 63.3783 15.484 63.2285 15.3376L62.2018 14.3329C62.1184 14.2495 62.0877 14.1354 62.1252 14.0247C62.1626 13.9106 62.2529 13.834 62.372 13.817L63.7903 13.6092C63.998 13.5786 64.1547 13.4645 64.2483 13.2772L64.8868 11.9916C64.9396 11.8843 65.04 11.8213 65.1609 11.8213C65.2767 11.823 65.3754 11.8843 65.4282 11.9916Z" fill="#0C0B38"/>
<path fill-rule="evenodd" clip-rule="evenodd" d="M54.7044 17.7304L55.0023 18.3297C55.0432 18.4166 55.1198 18.4711 55.2134 18.4864L55.8792 18.5835C55.9353 18.5903 55.9762 18.6277 55.9932 18.6805C56.0103 18.7333 55.9966 18.7878 55.9558 18.827L55.4773 19.2952C55.4075 19.365 55.3803 19.4519 55.3973 19.5455L55.508 20.2079C55.5182 20.2641 55.4978 20.3152 55.4518 20.3458C55.4058 20.3765 55.3514 20.3799 55.302 20.3561L54.7061 20.0445C54.6192 20.0002 54.529 20.0002 54.4422 20.0445L53.8496 20.3561C53.802 20.3799 53.7458 20.3765 53.6998 20.3458C53.6555 20.3152 53.6334 20.2624 53.6436 20.2079L53.7543 19.5455C53.7713 19.4519 53.7441 19.365 53.6709 19.2952L53.1924 18.827C53.155 18.7895 53.1397 18.7333 53.1584 18.6805C53.1754 18.6277 53.218 18.5903 53.2725 18.5835L53.9348 18.4864C54.0318 18.4728 54.105 18.4166 54.1493 18.3297L54.4473 17.7304C54.4711 17.6776 54.5171 17.6503 54.5716 17.6503C54.626 17.6503 54.6788 17.6776 54.7044 17.7304Z" fill="#0C0B38"/>
<path fill-rule="evenodd" clip-rule="evenodd" d="M67.7376 20.596L68.0355 21.1954C68.0764 21.2822 68.1496 21.3367 68.2467 21.352L68.9124 21.4491C68.9651 21.4559 69.0094 21.4951 69.0264 21.5462C69.0401 21.5989 69.0299 21.6534 68.989 21.6926L68.5106 22.1609C68.4407 22.2307 68.4135 22.3175 68.4271 22.4112L68.5412 23.0736C68.548 23.1298 68.5276 23.1808 68.485 23.2115C68.4407 23.2421 68.3846 23.249 68.3318 23.2217L67.7393 22.9101C67.6524 22.8658 67.5622 22.8658 67.4754 22.9101L66.8829 23.2217C66.8352 23.249 66.779 23.2421 66.733 23.2115C66.6871 23.1808 66.6666 23.1281 66.6734 23.0736L66.7875 22.4112C66.8011 22.3175 66.7739 22.2307 66.7041 22.1609L66.2256 21.6926C66.1882 21.6551 66.1729 21.5989 66.1916 21.5462C66.2086 21.4934 66.2512 21.4559 66.3057 21.4491L66.968 21.352C67.065 21.3384 67.1382 21.2822 67.1825 21.1954L67.4771 20.596C67.5043 20.5466 67.5503 20.516 67.6048 20.516C67.6644 20.516 67.7137 20.5466 67.7376 20.596Z" fill="#0C0B38"/>
<path fill-rule="evenodd" clip-rule="evenodd" d="M72.4313 16.3504L72.656 16.8016C72.6867 16.868 72.7429 16.9055 72.8161 16.9157L73.3115 16.9924C73.3524 16.9958 73.3881 17.023 73.3984 17.0656C73.412 17.103 73.4018 17.1456 73.3745 17.1728L73.0136 17.527C72.9608 17.5747 72.9404 17.6411 72.9506 17.7143L73.034 18.2099C73.0408 18.2507 73.0272 18.2899 72.9931 18.3137C72.9591 18.3376 72.9165 18.341 72.8825 18.3205L72.4347 18.089C72.3683 18.0549 72.3036 18.0549 72.2372 18.089L71.7894 18.3205C71.7553 18.341 71.7128 18.3376 71.6787 18.3137C71.6447 18.2899 71.631 18.2507 71.6379 18.2099L71.7213 17.7143C71.7349 17.6411 71.7111 17.5764 71.6583 17.527L71.3007 17.1728C71.2701 17.1456 71.2599 17.103 71.2735 17.0656C71.2837 17.0247 71.3178 16.9958 71.3603 16.9924L71.8558 16.9157C71.929 16.9055 71.9835 16.868 72.0158 16.8016L72.2406 16.3504C72.2576 16.3129 72.2968 16.2908 72.3376 16.2908C72.3785 16.2908 72.4142 16.3112 72.4313 16.3504Z" fill="#0C0B38"/>
<path fill-rule="evenodd" clip-rule="evenodd" d="M43.8668 22.4753L44.0916 22.93C44.1222 22.9964 44.1784 23.0338 44.2516 23.0441L44.7505 23.1173C44.7879 23.1241 44.8237 23.1513 44.8339 23.1905C44.8475 23.2314 44.8373 23.2705 44.8101 23.3012L44.4491 23.6502C44.3963 23.703 44.3759 23.7677 44.3861 23.841L44.4695 24.3365C44.4764 24.3773 44.4627 24.4165 44.4287 24.4403C44.398 24.4642 44.3555 24.4676 44.318 24.4472L43.8702 24.2156C43.8038 24.1815 43.7391 24.1815 43.6727 24.2156L43.2249 24.4472C43.1909 24.4676 43.1483 24.4642 43.1143 24.4403C43.0802 24.4165 43.0649 24.3773 43.0734 24.3365L43.1568 23.841C43.1705 23.7677 43.15 23.703 43.0972 23.6502L42.7363 23.2995C42.7056 23.2688 42.6954 23.2297 42.709 23.1888C42.7227 23.1513 42.7533 23.1224 42.7959 23.1156L43.2913 23.0424C43.3646 23.0321 43.419 22.9947 43.4548 22.9283L43.6761 22.477C43.6932 22.4396 43.7323 22.414 43.7732 22.414C43.8157 22.4174 43.8498 22.4413 43.8668 22.4753Z" fill="#0C0B38"/>
<path fill-rule="evenodd" clip-rule="evenodd" d="M48.6837 14.544L49.0685 15.3205C49.1246 15.4346 49.2217 15.5044 49.346 15.5214L50.2024 15.6457C50.2722 15.656 50.3267 15.7053 50.3488 15.77C50.3727 15.8399 50.3556 15.908 50.3046 15.9574L49.6848 16.5636C49.5946 16.6538 49.5605 16.7645 49.5809 16.8888L49.7274 17.7419C49.7376 17.8117 49.7103 17.8764 49.6542 17.919C49.5946 17.9633 49.523 17.9667 49.4601 17.936L48.6939 17.5341C48.5832 17.4745 48.4657 17.4745 48.3551 17.5341L47.5855 17.936C47.5225 17.9667 47.451 17.9633 47.3948 17.919C47.3352 17.8781 47.308 17.8117 47.3216 17.7419L47.4629 16.8888C47.4867 16.7645 47.4493 16.6538 47.359 16.5636L46.7427 15.9574C46.6899 15.908 46.6729 15.8399 46.695 15.77C46.7188 15.7036 46.7716 15.656 46.8448 15.6457L47.7013 15.5214C47.8255 15.5044 47.9192 15.4346 47.9754 15.3205L48.3602 14.544C48.3942 14.481 48.4538 14.4436 48.527 14.4436C48.59 14.4436 48.653 14.481 48.6837 14.544Z" fill="#0C0B38"/>
<path fill-rule="evenodd" clip-rule="evenodd" d="M60.9968 6.17769L61.4258 7.05122C61.4922 7.17553 61.5961 7.25215 61.7374 7.27259L62.6977 7.41392C62.7777 7.42754 62.839 7.48033 62.8646 7.55525C62.8884 7.63188 62.8714 7.7085 62.8118 7.76299L62.1154 8.44581C62.015 8.54287 61.9775 8.66718 61.9979 8.80681L62.1614 9.76718C62.175 9.84722 62.1444 9.92044 62.0814 9.96811C62.015 10.0175 61.9349 10.0209 61.8634 9.98514L61.0036 9.5305C60.8793 9.46749 60.7465 9.46749 60.6222 9.5305L59.759 9.98514C59.6858 10.0192 59.6057 10.0158 59.541 9.96811C59.4781 9.92044 59.4474 9.84722 59.461 9.76718L59.6245 8.80681C59.6483 8.66888 59.6075 8.54287 59.507 8.44581L58.8106 7.76299C58.7544 7.7068 58.734 7.63188 58.7578 7.55525C58.7817 7.47863 58.8447 7.42754 58.9247 7.41392L59.8884 7.27259C60.0263 7.25215 60.1353 7.17553 60.1966 7.05122L60.6273 6.17769C60.6648 6.10447 60.7312 6.0636 60.8146 6.0636C60.8929 6.0636 60.9627 6.10447 60.9968 6.17769Z" fill="#0C0B38"/>
<path fill-rule="evenodd" clip-rule="evenodd" d="M72.7108 8.83049L72.8606 9.1353C72.8844 9.17616 72.9202 9.20511 72.9679 9.21192L73.3084 9.26471C73.3356 9.26811 73.3561 9.28514 73.3646 9.31409C73.3748 9.33793 73.368 9.36688 73.3475 9.38731L73.1058 9.6257C73.0717 9.65976 73.0564 9.70233 73.0649 9.75L73.1211 10.0855C73.1279 10.1127 73.1177 10.1382 73.0939 10.1553C73.0734 10.1723 73.0411 10.1757 73.0172 10.1621L72.7159 10.002C72.675 9.98159 72.6256 9.98159 72.5848 10.002L72.2834 10.1621C72.2596 10.1757 72.2306 10.1723 72.2068 10.1553C72.1864 10.1382 72.1727 10.1144 72.1796 10.0855L72.2357 9.75C72.246 9.70062 72.2323 9.65976 72.1949 9.6257L71.9514 9.38731C71.931 9.36688 71.9242 9.33793 71.9344 9.31409C71.9412 9.28684 71.965 9.26811 71.994 9.26471L72.3311 9.21192C72.3788 9.20511 72.4179 9.17787 72.4384 9.1353L72.5916 8.83049C72.6018 8.80325 72.6256 8.78963 72.6546 8.78963C72.6716 8.78793 72.6954 8.80155 72.7108 8.83049Z" fill="#0C0B38"/>
<path fill-rule="evenodd" clip-rule="evenodd" d="M52.4233 9.79416L52.5731 10.099C52.5969 10.1449 52.6361 10.1688 52.6838 10.1756L53.0209 10.2284C53.0481 10.2318 53.0686 10.2488 53.0771 10.2778C53.0873 10.305 53.0805 10.3305 53.0601 10.351L52.8166 10.5894C52.7825 10.6234 52.7689 10.666 52.7757 10.7137L52.8353 11.0508C52.8387 11.0781 52.8285 11.107 52.8047 11.1206C52.7842 11.1377 52.7553 11.1411 52.7281 11.1274L52.4301 10.9674C52.3858 10.947 52.3399 10.947 52.2956 10.9674L51.9942 11.1274C51.9704 11.1411 51.9414 11.1377 51.9176 11.1206C51.8972 11.107 51.887 11.0798 51.8904 11.0508L51.9466 10.7137C51.9568 10.666 51.9431 10.6234 51.9057 10.5894L51.6622 10.351C51.6452 10.3305 51.6384 10.3067 51.6452 10.2778C51.6554 10.2505 51.6758 10.2335 51.7048 10.2284L52.0419 10.1756C52.0896 10.1688 52.1287 10.1449 52.1492 10.099L52.3024 9.79416C52.3126 9.77032 52.3365 9.75329 52.3654 9.75329C52.3858 9.75159 52.4097 9.76862 52.4233 9.79416Z" fill="#0C0B38"/>
<path fill-rule="evenodd" clip-rule="evenodd" d="M41.6331 15.8293L41.7829 16.1341C41.8068 16.1801 41.8425 16.2039 41.8936 16.2107L42.2307 16.2635C42.258 16.2669 42.2784 16.2839 42.2869 16.3112C42.2971 16.335 42.2903 16.364 42.2699 16.3844L42.0281 16.6228C41.9941 16.6569 41.9787 16.6994 41.9872 16.7471L42.0434 17.0843C42.0502 17.1115 42.04 17.1404 42.0162 17.1541C41.9958 17.1711 41.9668 17.1745 41.9396 17.1609L41.6382 17.0008C41.5973 16.9804 41.5514 16.9804 41.5071 17.0008L41.2057 17.1609C41.1819 17.1745 41.153 17.1711 41.1291 17.1541C41.1087 17.1404 41.0985 17.1132 41.1019 17.0843L41.1581 16.7471C41.1683 16.6994 41.1547 16.6569 41.1172 16.6228L40.8737 16.3844C40.8533 16.364 40.8499 16.3367 40.8567 16.3112C40.8669 16.2839 40.8873 16.2669 40.9163 16.2635L41.2534 16.2107C41.3011 16.2039 41.3402 16.1801 41.3607 16.1341L41.5139 15.8293C41.5241 15.8055 41.548 15.7884 41.5769 15.7884C41.5956 15.7884 41.6195 15.8055 41.6331 15.8293Z" fill="#0C0B38"/>
<path fill-rule="evenodd" clip-rule="evenodd" d="M49.0853 27.2841L49.2351 27.5889C49.2589 27.6348 49.2947 27.6621 49.3424 27.6689L49.6812 27.7166C49.7084 27.72 49.7289 27.737 49.7374 27.766C49.7476 27.7932 49.7408 27.8222 49.7203 27.8392L49.4769 28.0776C49.4428 28.1116 49.4275 28.1542 49.436 28.2053L49.4922 28.5373C49.499 28.5646 49.4888 28.5935 49.465 28.6105C49.4445 28.6242 49.4122 28.6276 49.3883 28.614L49.087 28.4573C49.0461 28.4335 48.9967 28.4335 48.9559 28.4573L48.6545 28.614C48.6307 28.6276 48.6017 28.6242 48.5779 28.6105C48.5575 28.5935 48.5438 28.5646 48.5507 28.5373L48.6068 28.2053C48.6171 28.1525 48.6034 28.1116 48.566 28.0776L48.3225 27.8392C48.3021 27.8222 48.2953 27.7949 48.3055 27.766C48.3123 27.7387 48.3361 27.7217 48.3651 27.7166L48.7005 27.6689C48.7499 27.6621 48.7873 27.6348 48.8077 27.5889L48.961 27.2841C48.9712 27.2602 48.995 27.2432 49.024 27.2432C49.0478 27.2432 49.0717 27.2602 49.0853 27.2841Z" fill="#0C0B38"/>
<path fill-rule="evenodd" clip-rule="evenodd" d="M66.859 3.54099L67.0838 3.99223C67.1144 4.05864 67.1706 4.0961 67.2438 4.10632L67.7427 4.18294C67.7835 4.18635 67.8159 4.21359 67.8295 4.25276C67.8397 4.29362 67.8295 4.33619 67.8023 4.36344L67.4413 4.71762C67.3885 4.7653 67.3681 4.83171 67.3783 4.90493L67.4651 5.40044C67.472 5.44131 67.4549 5.48047 67.4209 5.50431C67.3902 5.52815 67.3477 5.53156 67.3102 5.51112L66.8624 5.27954C66.7994 5.24549 66.7313 5.24549 66.6649 5.27954L66.2205 5.51112C66.1831 5.53156 66.1405 5.52815 66.1065 5.50431C66.0758 5.48047 66.0588 5.44131 66.0656 5.40044L66.149 4.90493C66.1626 4.83171 66.1422 4.767 66.0894 4.71762L65.7285 4.36344C65.6978 4.33619 65.6876 4.29362 65.7012 4.25276C65.7149 4.2153 65.7455 4.18635 65.7881 4.18294L66.2869 4.10632C66.3567 4.0961 66.4112 4.05864 66.447 3.99223L66.6683 3.54099C66.6888 3.50353 66.7245 3.48139 66.7654 3.48139C66.8062 3.48139 66.842 3.50182 66.859 3.54099Z" fill="#0C0B38"/>
<path fill-rule="evenodd" clip-rule="evenodd" d="M54.9017 3.04155L55.1265 3.49279C55.1571 3.5592 55.2133 3.59667 55.2865 3.60688L55.7854 3.6801C55.8262 3.68691 55.8586 3.71416 55.8722 3.75332C55.8824 3.79419 55.8722 3.83676 55.845 3.86401L55.484 4.21478C55.4312 4.26757 55.4108 4.33227 55.421 4.40549L55.5079 4.90101C55.5147 4.94188 55.4976 4.98104 55.4619 5.00488C55.4312 5.02872 55.3887 5.03212 55.3512 5.01169L54.9034 4.78011C54.8404 4.74605 54.7723 4.74605 54.7059 4.78011L54.2615 5.01169C54.2241 5.03212 54.1815 5.02872 54.1475 5.00488C54.1168 4.98104 54.0981 4.94188 54.1066 4.90101L54.19 4.40549C54.2037 4.33227 54.1832 4.26587 54.1304 4.21478L53.7695 3.86401C53.7388 3.83676 53.7286 3.79419 53.7422 3.75332C53.7559 3.71586 53.7865 3.68691 53.8291 3.6801L54.3279 3.60688C54.3978 3.59667 54.4522 3.5592 54.488 3.49279L54.7093 3.04155C54.7298 3.00409 54.7655 2.98196 54.8064 2.98196C54.8489 2.98196 54.8847 3.00239 54.9017 3.04155Z" fill="#0C0B38"/>
<path fill-rule="evenodd" clip-rule="evenodd" d="M46.0856 8.65654L46.3103 9.10778C46.341 9.17419 46.3972 9.21506 46.4704 9.22528L46.9692 9.2985C47.0067 9.30531 47.0424 9.32915 47.0527 9.37172C47.0663 9.40918 47.0561 9.45175 47.0288 9.47899L46.6679 9.83318C46.6151 9.88596 46.5947 9.94726 46.6049 10.0205L46.6883 10.516C46.6951 10.5569 46.6815 10.596 46.6474 10.6199C46.6134 10.6437 46.5708 10.6471 46.5368 10.6301L46.089 10.3951C46.0226 10.361 45.9579 10.361 45.8915 10.3951L45.4437 10.6301C45.4096 10.6471 45.3671 10.6437 45.333 10.6199C45.299 10.596 45.2853 10.5569 45.2922 10.516L45.3756 10.0205C45.3892 9.94726 45.3654 9.88596 45.3126 9.83318L44.955 9.47899C44.9244 9.45175 44.9142 9.40918 44.9278 9.37172C44.9414 9.33085 44.9738 9.30531 45.0146 9.2985L45.5101 9.22528C45.5833 9.21506 45.6378 9.17249 45.6701 9.10778L45.8949 8.65654C45.9119 8.61908 45.9511 8.59694 45.9919 8.59694C46.0345 8.59694 46.0685 8.61738 46.0856 8.65654Z" fill="#0C0B38"/>
<path fill-rule="evenodd" clip-rule="evenodd" d="M57.3861 13.4929L57.5359 13.7977C57.5597 13.8437 57.5955 13.8709 57.6431 13.8777L57.9786 13.9254C58.0058 13.9288 58.0313 13.9493 58.0382 13.9731C58.0484 14.0003 58.0416 14.0293 58.0211 14.0497L57.7777 14.2847C57.7436 14.3188 57.7283 14.3647 57.7368 14.4124L57.793 14.7479C57.7998 14.7751 57.7896 14.8007 57.7657 14.8177C57.7453 14.8347 57.713 14.8347 57.6891 14.8211L57.3878 14.6644C57.3469 14.6406 57.2975 14.6406 57.2567 14.6644L56.9553 14.8211C56.9315 14.8347 56.9025 14.8347 56.8787 14.8177C56.8548 14.8007 56.8446 14.7768 56.8514 14.7479L56.9076 14.4124C56.9178 14.363 56.9008 14.3188 56.8668 14.2847L56.6233 14.0497C56.6029 14.0293 56.596 14.0003 56.6063 13.9731C56.6131 13.9493 56.6369 13.9288 56.6658 13.9254L57.0013 13.8777C57.0506 13.8709 57.0881 13.8437 57.1085 13.7977L57.2584 13.4929C57.272 13.4691 57.2958 13.4555 57.3248 13.4555C57.3469 13.4555 57.3707 13.4691 57.3861 13.4929Z" fill="#0C0B38"/>
<path fill-rule="evenodd" clip-rule="evenodd" d="M66.1661 26.3864L66.3193 26.6912C66.3398 26.7371 66.3789 26.7644 66.4266 26.7712L66.7637 26.8189C66.791 26.8223 66.8114 26.8427 66.8233 26.8683C66.8301 26.8955 66.8233 26.9245 66.8063 26.9415L66.5628 27.1799C66.5254 27.2139 66.51 27.2599 66.5219 27.3076L66.5781 27.6396C66.5815 27.6669 66.5713 27.6958 66.5509 27.7129C66.5271 27.7299 66.4981 27.7299 66.4743 27.7163L66.1729 27.5596C66.1286 27.5358 66.0827 27.5358 66.0418 27.5596L65.7404 27.7163C65.7132 27.7299 65.6843 27.7299 65.6638 27.7129C65.64 27.6958 65.6298 27.6669 65.6366 27.6396L65.6928 27.3076C65.6996 27.2599 65.686 27.2139 65.6519 27.1799L65.4084 26.9449C65.388 26.9245 65.3812 26.8955 65.3914 26.8683C65.3982 26.8444 65.4187 26.824 65.4476 26.8189L65.7847 26.7712C65.8375 26.7644 65.8715 26.7371 65.8954 26.6912L66.0452 26.3864C66.0588 26.3625 66.0827 26.3489 66.1116 26.3489C66.1303 26.3489 66.1559 26.3625 66.1661 26.3864Z" fill="#0C0B38"/>
<path fill-rule="evenodd" clip-rule="evenodd" d="M60.7565 0.0374615L60.9064 0.342262C60.9268 0.386535 60.966 0.415482 61.0136 0.422294L61.3508 0.469972C61.378 0.473377 61.4035 0.493811 61.4103 0.519353C61.4206 0.546598 61.4138 0.575545 61.3933 0.595979L61.1498 0.830965C61.1158 0.865021 61.0971 0.910996 61.109 0.958674L61.1652 1.29583C61.172 1.32307 61.1618 1.34861 61.1379 1.36564C61.1141 1.38267 61.0851 1.38267 61.0613 1.37245L60.7599 1.21239C60.7191 1.18855 60.6697 1.18855 60.6288 1.21239L60.3275 1.37245C60.3036 1.38267 60.2713 1.38267 60.2509 1.36564C60.227 1.34861 60.2168 1.32478 60.2236 1.29583L60.2798 0.958674C60.2866 0.910996 60.273 0.865021 60.2389 0.830965L59.9955 0.595979C59.975 0.575545 59.9682 0.5483 59.9784 0.519353C59.9853 0.495514 60.0091 0.473377 60.038 0.469972L60.3752 0.422294C60.4228 0.415482 60.4586 0.388238 60.4824 0.342262L60.6237 0.0374615C60.6374 0.0136224 60.6612 0 60.6901 0C60.7174 0 60.7412 0.0136224 60.7565 0.0374615Z" fill="#0C0B38"/>
<path fill-rule="evenodd" clip-rule="evenodd" d="M48.7342 2.35676L48.884 2.66156C48.9079 2.70754 48.9436 2.73478 48.9913 2.74159L49.3284 2.78927C49.3557 2.79268 49.3795 2.8097 49.388 2.83695C49.3982 2.86419 49.3914 2.89314 49.371 2.91017L49.1275 3.14856C49.0935 3.18262 49.0747 3.22519 49.0867 3.27627L49.1428 3.60832C49.1496 3.63556 49.1394 3.66451 49.1156 3.68154C49.0918 3.69516 49.0628 3.69856 49.039 3.68494L48.7376 3.52828C48.6968 3.50444 48.6474 3.50444 48.6065 3.52828L48.3052 3.68494C48.2813 3.69856 48.249 3.69516 48.2285 3.68154C48.2047 3.66451 48.1945 3.63726 48.2013 3.60832L48.2575 3.27627C48.2643 3.22348 48.2507 3.18262 48.2166 3.14856L47.9748 2.91017C47.9544 2.89314 47.9476 2.86419 47.9578 2.83695C47.9646 2.8097 47.9885 2.79268 48.0174 2.78927L48.3528 2.74159C48.4022 2.73478 48.4363 2.70754 48.4601 2.66156L48.6099 2.35676C48.6235 2.33292 48.6474 2.3193 48.6763 2.3193C48.695 2.3193 48.7206 2.33292 48.7342 2.35676Z" fill="#0C0B38"/>
<path fill-rule="evenodd" clip-rule="evenodd" d="M57.3033 22.8191C57.1432 22.7595 56.9015 22.7459 56.7653 22.785C57.3646 23.0558 57.2965 23.5513 57.86 23.6143C58.3419 23.6671 58.5292 23.4866 58.6024 23.5547C58.6398 23.5921 58.599 23.8016 58.6552 24.0093C58.7897 24.0536 59.0195 23.9957 59.0995 24.0298C59.2375 24.0894 59.0859 24.3703 59.3873 24.5117C59.595 24.6121 59.6154 24.7688 59.5575 24.934C59.5082 25.0719 59.3737 25.2354 59.2698 25.4124C59.0059 25.8705 59.6274 26.5261 59.956 25.9948C60.1671 25.6559 60.2573 24.7501 60.4548 24.292C60.9128 23.2312 61.2482 22.6113 61.4713 21.9455C61.5581 21.685 61.742 21.2491 61.6211 21.0226C61.5002 20.8013 60.872 20.9154 60.8652 20.7791C60.8617 20.6923 61.4849 20.7127 61.5002 20.6225C61.5139 20.5118 60.7902 20.3841 60.8311 20.2445C60.8771 20.081 61.5445 20.4352 61.5939 20.3109C61.6569 20.1508 60.8243 19.6587 60.9946 19.4748C61.0882 19.3709 61.6841 20.0708 61.8339 19.9039C61.9174 19.8102 61.5768 19.1513 61.7709 19.061C61.8952 19.0048 62.0212 19.3999 62.1421 19.754C62.5337 20.9085 63.3629 19.8102 63.3101 20.2666C63.2931 20.4403 63.1092 20.4845 62.9219 20.5612C62.4741 20.7451 62.4026 21.2304 62.2868 21.6714C62.0468 22.6147 62.0961 23.5853 61.8714 24.5219C61.7471 25.0344 61.4628 25.673 61.3095 26.1787C61.5939 26.4665 62.0093 26.3864 61.444 27.0182C61.3402 27.1748 61.3879 27.34 61.5888 27.5137C63.305 29.3033 63.5723 30.8001 63.3782 32.2951C61.8952 32.743 60.431 33.138 59.011 33.4803C59.309 32.5369 59.8249 31.7434 59.8538 30.5923C59.8742 29.7529 59.6461 29.5077 59.0314 30.0934C59.0042 30.1207 58.9787 30.0968 58.8901 29.993C58.8561 29.9521 58.8459 29.9334 58.7795 29.8618C58.5053 30.2399 57.5842 31.0862 57.4906 31.5544C57.4242 31.8729 57.5808 32.1538 57.6983 32.3735C57.826 32.6119 57.9792 32.7277 57.9333 32.7413C57.6319 32.8451 57.4957 32.4024 57.2403 32.4501C57.0019 32.4961 56.9389 33.1568 56.7687 33.1057C56.6274 33.0648 56.8759 32.3667 56.8453 32.353C56.7346 32.3156 56.28 32.9984 56.1421 32.9354C56.0144 32.8792 56.5899 32.1862 56.5405 32.1555C56.4605 32.1027 55.8373 32.5999 55.7113 32.4995C55.6245 32.4331 56.3039 31.9205 56.2868 31.8865C56.2596 31.8235 55.6313 31.9801 55.6415 31.8201C55.6449 31.7571 55.8595 31.7298 56.0927 31.6498C56.8453 31.3961 57.2335 30.2314 57.7051 29.2676C57.9264 28.8095 58.8288 27.7725 58.4713 27.4507C58.33 27.3196 58.0456 27.323 57.7647 27.4643C55.616 28.5524 54.4855 27.7555 53.864 26.3337C53.7006 26.4137 53.5558 26.572 53.5269 26.7491C53.3924 26.5414 53.4469 26.2604 53.6546 26.1208C53.326 26.114 53.0246 25.9369 52.8578 25.6491C53.108 25.8126 53.406 25.8841 53.7006 25.8501C52.9582 23.4934 56.3669 21.811 57.4787 22.5841C57.2437 22.5347 57.0002 22.5705 56.8402 22.6437C57.0019 22.6556 57.196 22.7322 57.3033 22.8191ZM62.9696 34.1801C62.7789 34.9294 62.6512 35.8574 62.7959 36.6764C62.9134 37.3559 61.1257 37.0783 60.557 37.0442C59.5865 36.9881 59.2851 37 59.1676 36.8399C59.0638 36.702 59.0978 36.4346 58.9565 35.8863C58.9003 35.682 58.8663 35.4845 58.839 35.3006C60.1909 34.9668 61.57 34.5956 62.9696 34.1801Z" fill="#0C0B38"/>
<path fill-rule="evenodd" clip-rule="evenodd" d="M62.0658 37.0749C62.0556 37.8786 61.4665 38.9684 61.2928 39.8964C61.2264 40.2285 61.1532 40.6967 61.1889 40.9402C61.3234 41.8666 62.2428 42.1084 62.2054 42.2786C62.1679 42.4557 61.6367 42.3161 61.4699 42.2582C60.7037 41.967 60.0482 41.5788 59.6872 40.9624C59.4625 40.5741 60.009 40.5707 60.1793 40.3971C60.6015 39.9662 60.2831 38.272 60.6782 36.7633L62.0658 37.0749Z" fill="#0C0B38"/>
<path fill-rule="evenodd" clip-rule="evenodd" d="M61.5106 37.2588C61.1224 37.962 60.0924 38.6449 59.4998 39.3839C59.2887 39.6478 59.001 40.0258 58.9175 40.2574C58.6026 41.1378 59.2955 41.7831 59.1849 41.9142C59.0674 42.0522 58.6656 41.6827 58.5464 41.5498C58.0271 40.9573 57.6389 40.3289 57.5895 39.6461C57.5452 39.074 58.0049 39.389 58.2825 39.3021C58.8614 39.1182 59.3738 37.4716 60.4346 36.3308L61.5106 37.2588Z" fill="#0C0B38"/>
<path fill-rule="evenodd" clip-rule="evenodd" d="M74.733 14.6917C78.2727 13.9527 80.7824 14.1757 81.569 15.538C83.3823 18.6762 75.3783 26.6913 63.695 33.4378C52.0099 40.1842 41.0689 43.1062 39.2556 39.9663C38.154 38.0558 40.6841 34.3436 45.4685 30.2076C42.1824 33.3458 40.5564 36.0771 41.4197 37.5705C43.0422 40.3818 52.8272 37.7646 63.2795 31.7282C73.7353 25.6951 80.8931 18.5264 79.2705 15.7151C78.6916 14.7104 77.0622 14.4005 74.733 14.6917Z" fill="#0C0B38"/>
<path fill-rule="evenodd" clip-rule="evenodd" d="M49.6871 32.4877L49.9119 32.939C49.9425 33.0054 49.9987 33.0429 50.0719 33.0531L50.5708 33.1297C50.6083 33.1331 50.644 33.1604 50.6542 33.1995C50.6678 33.2404 50.6576 33.283 50.6304 33.3102L50.2694 33.6644C50.2166 33.7121 50.1962 33.7785 50.2064 33.8517L50.2899 34.3472C50.2967 34.3881 50.283 34.4272 50.249 34.4511C50.2149 34.4749 50.1724 34.4783 50.1383 34.4579L49.6905 34.2263C49.6241 34.1922 49.5594 34.1922 49.493 34.2263L49.0452 34.4579C49.0112 34.4783 48.9686 34.4749 48.9346 34.4511C48.9005 34.4272 48.8869 34.3881 48.8937 34.3472L48.9771 33.8517C48.9908 33.7785 48.9703 33.7138 48.9141 33.6644L48.5566 33.3102C48.526 33.283 48.5157 33.2404 48.5294 33.1995C48.543 33.1621 48.5736 33.1331 48.6162 33.1297L49.1117 33.0531C49.1849 33.0429 49.2393 33.0037 49.2751 32.939L49.4964 32.4877C49.5135 32.4503 49.5526 32.4282 49.5935 32.4282C49.6344 32.4299 49.6684 32.4503 49.6871 32.4877Z" fill="#0C0B38"/>
<path d="M4.6498 66.3341C5.09073 66.3341 5.45149 66.3007 5.73208 66.2339C6.02604 66.1537 6.25986 66.0535 6.43356 65.9332C6.60726 65.7996 6.72752 65.6459 6.79432 65.4722C6.86113 65.2985 6.89453 65.1047 6.89453 64.8909C6.89453 64.4366 6.68075 64.0624 6.25318 63.7684C5.82561 63.4611 5.09073 63.1337 4.04853 62.7862C3.59424 62.6259 3.13995 62.4455 2.68566 62.245C2.23137 62.0312 1.82384 61.7707 1.46308 61.4633C1.10232 61.1426 0.808371 60.7618 0.581225 60.3208C0.35408 59.8664 0.240507 59.3186 0.240507 58.6771C0.240507 58.0357 0.360761 57.4611 0.601268 56.9533C0.841775 56.4322 1.18249 55.9912 1.62342 55.6304C2.06435 55.2696 2.59881 54.9956 3.2268 54.8086C3.85479 54.6081 4.56295 54.5079 5.35128 54.5079C6.28659 54.5079 7.09496 54.6081 7.77639 54.8086C8.45783 55.009 9.01901 55.2295 9.45994 55.47L8.55804 57.9355C8.17056 57.735 7.73631 57.5613 7.25529 57.4143C6.78764 57.254 6.21978 57.1738 5.5517 57.1738C4.80346 57.1738 4.26232 57.2807 3.92828 57.4945C3.60761 57.695 3.44727 58.009 3.44727 58.4366C3.44727 58.6905 3.50739 58.9043 3.62765 59.078C3.7479 59.2517 3.91492 59.4121 4.1287 59.5591C4.35585 59.6927 4.60972 59.8197 4.89031 59.9399C5.18426 60.0468 5.50494 60.1604 5.85234 60.2807C6.57386 60.5479 7.20185 60.8152 7.73631 61.0825C8.27077 61.3364 8.7117 61.637 9.0591 61.9845C9.41986 62.3319 9.68709 62.7395 9.86079 63.2072C10.0345 63.6749 10.1213 64.2428 10.1213 64.9109C10.1213 66.2071 9.66705 67.216 8.75846 67.9376C7.84988 68.6459 6.48033 69 4.6498 69C4.03517 69 3.48067 68.9599 2.9863 68.8797C2.49192 68.8129 2.05099 68.7261 1.66351 68.6192C1.28938 68.5123 0.962028 68.3987 0.681437 68.2784C0.414207 68.1581 0.187061 68.0445 0 67.9376L0.881859 65.4521C1.29607 65.6793 1.8038 65.8864 2.40507 66.0735C3.0197 66.2472 3.76794 66.3341 4.6498 66.3341Z" fill="#0C0B38"/>
<path d="M15.3129 68.7194H12.3266V58.176H15.3129V68.7194ZM15.5935 55.1293C15.5935 55.6772 15.4131 56.1114 15.0524 56.4322C14.705 56.7395 14.2908 56.8932 13.8097 56.8932C13.3287 56.8932 12.9078 56.7395 12.5471 56.4322C12.1997 56.1114 12.026 55.6772 12.026 55.1293C12.026 54.5814 12.1997 54.1538 12.5471 53.8464C12.9078 53.5257 13.3287 53.3654 13.8097 53.3654C14.2908 53.3654 14.705 53.5257 15.0524 53.8464C15.4131 54.1538 15.5935 54.5814 15.5935 55.1293Z" fill="#0C0B38"/>
<path d="M24.4735 60.8219C24.2062 60.7551 23.8922 60.6883 23.5315 60.6214C23.1707 60.5413 22.7832 60.5012 22.369 60.5012C22.182 60.5012 21.9548 60.5212 21.6876 60.5613C21.4337 60.588 21.24 60.6214 21.1064 60.6615V68.7194H18.1201V58.7373C18.6545 58.5502 19.2825 58.3765 20.004 58.2161C20.7389 58.0424 21.554 57.9555 22.4492 57.9555C22.6095 57.9555 22.8033 57.9689 23.0304 57.9956C23.2576 58.009 23.4847 58.0357 23.7119 58.0758C23.939 58.1025 24.1662 58.1426 24.3933 58.1961C24.6204 58.2362 24.8142 58.2896 24.9745 58.3564L24.4735 60.8219Z" fill="#0C0B38"/>
<path d="M29.5617 68.7194H26.5754V58.176H29.5617V68.7194ZM29.8423 55.1293C29.8423 55.6772 29.6619 56.1114 29.3011 56.4322C28.9537 56.7395 28.5395 56.8932 28.0585 56.8932C27.5775 56.8932 27.1566 56.7395 26.7959 56.4322C26.4485 56.1114 26.2748 55.6772 26.2748 55.1293C26.2748 54.5814 26.4485 54.1538 26.7959 53.8464C27.1566 53.5257 27.5775 53.3654 28.0585 53.3654C28.5395 53.3654 28.9537 53.5257 29.3011 53.8464C29.6619 54.1538 29.8423 54.5814 29.8423 55.1293Z" fill="#0C0B38"/>
<path d="M41.3678 68.3586C40.8601 68.5056 40.2054 68.6392 39.4037 68.7595C38.602 68.8931 37.7602 68.9599 36.8784 68.9599C35.9832 68.9599 35.2349 68.8396 34.6336 68.5991C34.0457 68.3586 33.5781 68.0245 33.2307 67.5969C32.8833 67.1559 32.6361 66.6348 32.4891 66.0334C32.3421 65.4321 32.2687 64.7706 32.2687 64.049V58.176H35.2549V63.6882C35.2549 64.6504 35.3819 65.3452 35.6357 65.7729C35.8896 66.2005 36.364 66.4143 37.0588 66.4143C37.2725 66.4143 37.4997 66.4076 37.7402 66.3942C37.9807 66.3675 38.1945 66.3408 38.3815 66.314V58.176H41.3678V68.3586Z" fill="#0C0B38"/>
<path d="M47.1975 66.5746C47.7453 66.5746 48.1328 66.5212 48.3599 66.4143C48.5871 66.3074 48.7006 66.1002 48.7006 65.7929C48.7006 65.5524 48.5537 65.3452 48.2597 65.1715C47.9658 64.9844 47.5181 64.7773 46.9169 64.5501C46.4492 64.3764 46.0217 64.196 45.6342 64.0089C45.26 63.8219 44.9394 63.6014 44.6721 63.3475C44.4049 63.0802 44.1978 62.7662 44.0508 62.4054C43.9039 62.0446 43.8304 61.6103 43.8304 61.1025C43.8304 60.1136 44.1978 59.3319 44.9327 58.7573C45.6676 58.1827 46.6764 57.8954 47.9591 57.8954C48.6004 57.8954 49.2151 57.9555 49.803 58.0758C50.3909 58.1827 50.8585 58.303 51.2059 58.4366L50.6848 60.7618C50.3374 60.6415 49.9566 60.5346 49.5424 60.441C49.1416 60.3475 48.6873 60.3007 48.1795 60.3007C47.2442 60.3007 46.7766 60.5613 46.7766 61.0825C46.7766 61.2027 46.7966 61.3096 46.8367 61.4032C46.8768 61.4967 46.957 61.5903 47.0772 61.6838C47.1975 61.764 47.3578 61.8575 47.5582 61.9644C47.772 62.058 48.0392 62.1649 48.3599 62.2851C49.0146 62.5257 49.5558 62.7662 49.9833 63.0067C50.4109 63.2339 50.7449 63.4878 50.9855 63.7684C51.2393 64.0357 51.413 64.3363 51.5066 64.6704C51.6134 65.0045 51.6669 65.392 51.6669 65.833C51.6669 66.8753 51.2727 67.6637 50.4844 68.1982C49.7094 68.7327 48.6071 69 47.1774 69C46.2421 69 45.4605 68.9198 44.8325 68.7595C44.2178 68.5991 43.7903 68.4655 43.5498 68.3586L44.0508 65.9332C44.5586 66.1336 45.0797 66.294 45.6141 66.4143C46.1486 66.5212 46.6764 66.5746 47.1975 66.5746Z" fill="#0C0B38"/>
<path d="M58.9139 68.7194V54.8286H68.2135V57.4544H62.0405V60.3609H67.5321V62.9867H62.0405V68.7194H58.9139Z" fill="#0C0B38"/>
<path d="M78.8296 68.3586C78.3219 68.5056 77.6672 68.6392 76.8655 68.7595C76.0638 68.8931 75.222 68.9599 74.3402 68.9599C73.4449 68.9599 72.6967 68.8396 72.0954 68.5991C71.5075 68.3586 71.0399 68.0245 70.6925 67.5969C70.3451 67.1559 70.0979 66.6348 69.9509 66.0334C69.8039 65.4321 69.7304 64.7706 69.7304 64.049V58.176H72.7167V63.6882C72.7167 64.6504 72.8437 65.3452 73.0975 65.7729C73.3514 66.2005 73.8257 66.4143 74.5205 66.4143C74.7343 66.4143 74.9615 66.4076 75.202 66.3942C75.4425 66.3675 75.6563 66.3408 75.8433 66.314V58.176H78.8296V68.3586Z" fill="#0C0B38"/>
<path d="M81.5327 55.5502L84.519 55.0691V58.176H88.1065V60.6615H84.519V64.3697C84.519 64.9978 84.6258 65.4989 84.8396 65.8731C85.0668 66.2472 85.5144 66.4343 86.1825 66.4343C86.5031 66.4343 86.8305 66.4076 87.1645 66.3541C87.5119 66.2873 87.8259 66.2005 88.1065 66.0936L88.5274 68.4187C88.1666 68.5657 87.7658 68.6926 87.3249 68.7996C86.8839 68.9065 86.3428 68.9599 85.7014 68.9599C84.8864 68.9599 84.2116 68.853 83.6772 68.6392C83.1427 68.412 82.7151 68.1047 82.3945 67.7172C82.0738 67.3163 81.8467 66.8352 81.713 66.274C81.5928 65.7127 81.5327 65.0913 81.5327 64.4098V55.5502Z" fill="#0C0B38"/>
<path d="M99.5373 68.3586C99.0296 68.5056 98.3749 68.6392 97.5732 68.7595C96.7715 68.8931 95.9297 68.9599 95.0479 68.9599C94.1526 68.9599 93.4044 68.8396 92.8031 68.5991C92.2152 68.3586 91.7476 68.0245 91.4002 67.5969C91.0528 67.1559 90.8056 66.6348 90.6586 66.0334C90.5116 65.4321 90.4381 64.7706 90.4381 64.049V58.176H93.4244V63.6882C93.4244 64.6504 93.5514 65.3452 93.8052 65.7729C94.0591 66.2005 94.5334 66.4143 95.2282 66.4143C95.442 66.4143 95.6692 66.4076 95.9097 66.3942C96.1502 66.3675 96.364 66.3408 96.551 66.314V58.176H99.5373V68.3586Z" fill="#0C0B38"/>
<path d="M108.694 60.8219C108.427 60.7551 108.113 60.6883 107.752 60.6214C107.391 60.5413 107.004 60.5012 106.59 60.5012C106.402 60.5012 106.175 60.5212 105.908 60.5613C105.654 60.588 105.46 60.6214 105.327 60.6615V68.7194H102.341V58.7373C102.875 58.5502 103.503 58.3765 104.225 58.2161C104.959 58.0424 105.774 57.9555 106.67 57.9555C106.83 57.9555 107.024 57.9689 107.251 57.9956C107.478 58.009 107.705 58.0357 107.932 58.0758C108.16 58.1025 108.387 58.1426 108.614 58.1961C108.841 58.2362 109.035 58.2896 109.195 58.3564L108.694 60.8219Z" fill="#0C0B38"/>
<path d="M110.099 63.5279C110.099 62.5925 110.239 61.7773 110.52 61.0825C110.814 60.3742 111.195 59.7863 111.662 59.3186C112.13 58.8509 112.665 58.4967 113.266 58.2562C113.88 58.0157 114.508 57.8954 115.15 57.8954C116.646 57.8954 117.829 58.3564 118.697 59.2785C119.566 60.1871 120 61.5301 120 63.3074C120 63.4811 119.993 63.6749 119.98 63.8887C119.967 64.0891 119.953 64.2695 119.94 64.4299H113.166C113.232 65.0446 113.52 65.5323 114.027 65.8931C114.535 66.2539 115.217 66.4343 116.072 66.4343C116.62 66.4343 117.154 66.3875 117.675 66.294C118.21 66.1871 118.644 66.0602 118.978 65.9132L119.379 68.3385C119.218 68.4187 119.005 68.4989 118.737 68.5791C118.47 68.6592 118.169 68.7261 117.835 68.7795C117.515 68.8463 117.167 68.8998 116.793 68.9399C116.419 68.98 116.045 69 115.671 69C114.722 69 113.894 68.8597 113.186 68.5791C112.491 68.2984 111.91 67.9176 111.442 67.4365C110.988 66.9421 110.647 66.3608 110.42 65.6927C110.206 65.0245 110.099 64.3029 110.099 63.5279ZM117.114 62.3853C117.101 62.1315 117.054 61.8842 116.974 61.6437C116.907 61.4032 116.793 61.1894 116.633 61.0023C116.486 60.8152 116.292 60.6615 116.052 60.5413C115.825 60.421 115.537 60.3609 115.19 60.3609C114.856 60.3609 114.569 60.421 114.328 60.5413C114.088 60.6482 113.887 60.7952 113.727 60.9822C113.566 61.1693 113.44 61.3898 113.346 61.6437C113.266 61.8842 113.206 62.1315 113.166 62.3853H117.114Z" fill="#0C0B38"/>
</svg>
